<svg width="14.142578" height="14.142090" viewBox="0 0 14.1426 14.1421" fill="none" xmlns="http://www.w3.org/2000/svg" xmlns:xlink="http://www.w3.org/1999/xlink">
	<desc>
			Created with Pixso.
	</desc>
	<defs/>
	<path id="Vector 226 (Stroke)" d="M0.7 0.7C1.09 0.31 1.73 0.31 2.12 0.7L13.43 12.02C13.82 12.41 13.82 13.04 13.43 13.43C13.04 13.82 12.41 13.82 12.02 13.43L0.7 2.12C0.31 1.73 0.31 1.09 0.7 0.7Z" fill="#1064E5" fill-opacity="1.000000" fill-rule="evenodd"/>
	<path id="Vector 226 (Stroke)" d="M13.43 0.7C13.04 0.31 12.41 0.31 12.02 0.7L0.7 12.02C0.31 12.41 0.31 13.04 0.7 13.43C1.09 13.82 1.73 13.82 2.12 13.43L13.43 2.12C13.82 1.73 13.82 1.09 13.43 0.7Z" fill="#1064E5" fill-opacity="1.000000" fill-rule="evenodd"/>
</svg>
