<svg width="24.000000" height="24.000000" viewBox="0 0 24 24" fill="none" xmlns="http://www.w3.org/2000/svg" xmlns:xlink="http://www.w3.org/1999/xlink">
	<desc>
			Created with Pixso.
	</desc>
	<defs>
		<clipPath id="clip1_2468">
			<rect id="ic:baseline-location-on" rx="0.000000" width="23.000000" height="23.000000" transform="translate(0.500000 0.500000)" fill="white" fill-opacity="0"/>
		</clipPath>
	</defs>
	<rect id="ic:baseline-location-on" rx="0.000000" width="23.000000" height="23.000000" transform="translate(0.500000 0.500000)" fill="#FFFFFF" fill-opacity="0"/>
	<g clip-path="url(#clip1_2468)">
		<path id="Vector" d="M12 1C7.57 1 4 4.57 4 9C4 15 12 23.85 12 23.85C12 23.85 20 15 20 9C20 4.57 16.42 1 12 1ZM12 11.85C11.24 11.85 10.51 11.55 9.97 11.02C9.44 10.48 9.14 9.75 9.14 9C9.14 8.24 9.44 7.51 9.97 6.97C10.51 6.44 11.24 6.14 12 6.14C12.75 6.14 13.48 6.44 14.02 6.97C14.55 7.51 14.85 8.24 14.85 9C14.85 9.75 14.55 10.48 14.02 11.02C13.48 11.55 12.75 11.85 12 11.85Z" fill="#1064E5" fill-opacity="1.000000" fill-rule="nonzero"/>
	</g>
</svg>
