<svg width="32.000000" height="32.000000" viewBox="0 0 32 32" fill="none" xmlns="http://www.w3.org/2000/svg" xmlns:xlink="http://www.w3.org/1999/xlink">
	<desc>
			Created with Pixso.
	</desc>
	<defs/>
	<path id="linkedin" d="M3.00049 6C1.34326 6 0 4.65625 0 2.99951C0 1.34375 1.34326 0 3.00049 0C4.65674 0 6 1.34375 6 2.99951C6.00146 4.65625 4.65674 6 3.00049 6ZM25.8462 32L32 32L32 18.4829C32 12.7637 28.7876 10 24.4355 10C20.0845 10 18.1538 13.5259 18.1538 13.5259L18.1538 11.1851L12 11.1851L12 32L18.1538 32L18.1538 20.7935C18.1538 17.7915 19.6631 16.0044 22.2061 16.0044C24.543 16.0044 25.8462 17.7192 25.8462 20.7935L25.8462 32ZM6 32L0 32L0 12L6 12L6 32Z" clip-rule="evenodd" fill="#1064E5" fill-opacity="1.000000" fill-rule="evenodd"/>
</svg>
