<svg width="130.216675" height="40.000000" viewBox="0 0 130.217 40" fill="none" xmlns="http://www.w3.org/2000/svg" xmlns:xlink="http://www.w3.org/1999/xlink">
	<desc>
			Created with Pixso.
	</desc>
	<defs/>
	<path id="i" d="M72.01 6.56C72.78 6.56 73.4 6.79 73.89 7.27C74.39 7.72 74.63 8.3 74.63 9.03C74.63 9.76 74.39 10.35 73.89 10.82C73.4 11.3 72.78 11.53 72.01 11.53C71.27 11.53 70.64 11.3 70.13 10.82C69.64 10.35 69.39 9.76 69.39 9.03C69.39 8.32 69.64 7.74 70.13 7.27C70.64 6.79 71.27 6.56 72.01 6.56ZM69.89 30.21L69.89 14.03L74.1 14.03L74.1 30.21L69.89 30.21Z" fill="#061224" fill-opacity="1.000000" fill-rule="nonzero"/>
	<path id="g" d="M88.47 14.03L92.68 14.03L92.68 30.01C92.68 32.4 91.96 34.31 90.5 35.74C89.05 37.19 87.11 37.92 84.68 37.92C82.58 37.92 80.76 37.39 79.21 36.33C77.68 35.27 76.77 33.73 76.47 31.71L80.83 31.71C81.26 33.36 82.5 34.18 84.56 34.18C87.17 34.18 88.47 32.83 88.47 30.12L88.47 27.8C87.22 29.49 85.52 30.33 83.38 30.33C81.27 30.33 79.5 29.54 78.09 27.98C76.7 26.41 76 24.42 76 22C76 19.59 76.71 17.6 78.12 16.03C79.53 14.46 81.29 13.68 83.38 13.68C85.54 13.68 87.24 14.54 88.47 16.27L88.47 14.03ZM84.33 26.33C85.52 26.33 86.51 25.93 87.3 25.12C88.08 24.32 88.47 23.28 88.47 22C88.47 20.75 88.07 19.72 87.27 18.91C86.48 18.09 85.5 17.68 84.33 17.68C83.15 17.68 82.17 18.09 81.38 18.91C80.62 19.72 80.24 20.75 80.24 22C80.24 23.26 80.62 24.3 81.38 25.12C82.17 25.93 83.15 26.33 84.33 26.33Z" fill="#061224" fill-opacity="1.000000" fill-rule="nonzero"/>
	<path id="S" d="M59.28 22.02C57.77 21.71 56.55 21.39 55.63 21.08C54.71 20.77 53.86 20.36 53.1 19.87C52.33 19.4 51.79 18.81 51.48 18.11C51.15 17.4 50.98 16.55 50.98 15.55C50.98 14.41 51.22 13.4 51.71 12.52C52.19 11.66 52.82 10.99 53.63 10.52C54.41 10.05 55.25 9.69 56.13 9.46C56.99 9.22 57.88 9.11 58.8 9.11C61.61 9.11 63.75 9.76 65.22 11.08C66.67 12.41 67.52 14.08 67.78 16.08L63.54 16.08C63.25 15.02 62.75 14.24 62.04 13.75C61.32 13.26 60.25 13.02 58.83 13.02C57.66 13.02 56.77 13.22 56.16 13.64C55.53 14.05 55.22 14.63 55.22 15.37C55.22 15.84 55.39 16.21 55.75 16.49C56.08 16.78 56.49 17 56.98 17.14C57.47 17.27 58.34 17.48 59.6 17.75C59.7 17.77 59.78 17.78 59.83 17.78C59.87 17.8 59.94 17.82 60.04 17.84C60.12 17.86 60.2 17.88 60.28 17.9C61.33 18.12 62.23 18.35 62.95 18.61C63.68 18.86 64.39 19.22 65.1 19.67C65.81 20.12 66.35 20.7 66.72 21.4C67.07 22.11 67.25 22.95 67.25 23.93C67.25 25.97 66.48 27.56 64.95 28.7C63.42 29.84 61.6 30.4 59.48 30.4C56.89 30.4 54.93 29.81 53.6 28.61C52.24 27.43 51.44 25.9 51.19 24.02L55.45 24.02C55.96 25.67 57.29 26.49 59.45 26.49C60.65 26.49 61.54 26.27 62.13 25.82C62.72 25.38 63.01 24.81 63.01 24.11C63.01 23.54 62.77 23.13 62.28 22.87C61.77 22.62 60.77 22.33 59.28 22.02Z" fill="#061224" fill-opacity="1.000000" fill-rule="nonzero"/>
	<path id="Union" d="M107.028 13.4219Q109.079 13.4219 110.468 14.3799L110.468 14.3804Q110.933 14.7007 111.324 15.1284C112.363 16.2656 112.883 17.8247 112.883 19.8057L112.883 29.9556L108.676 29.9556L108.676 20.7178C108.676 19.6196 108.441 18.7959 107.97 18.2466C107.499 17.6973 106.724 17.4229 105.646 17.4229Q104.003 17.4229 103.1 18.2402Q101.998 19.2378 101.998 21.4531L101.998 29.9556L97.7909 29.9556L97.7909 17.7651L94.6344 17.7651L94.6344 14.0293L97.7909 14.0293L97.7909 13.7749L101.998 13.7749L101.998 14.0293L102.106 14.0293L102.106 15.834Q102.939 14.7236 104.048 14.1245Q105.348 13.4219 107.028 13.4219Z" clip-rule="evenodd" fill="#061224" fill-opacity="1.000000" fill-rule="evenodd"/>
	<path id="Union" d="M126.01 14.0361L130.217 14.0361L130.217 30.2168L130.217 30.2168L130.217 30.5161C130.217 32.749 129.538 34.5498 128.169 35.9009C126.8 37.27 124.972 37.9482 122.704 37.9482C120.748 37.9482 119.04 37.4541 117.586 36.4604L117.586 36.46C116.139 35.4585 115.28 34.002 115.004 32.1069L114.976 31.9165L119.294 31.9165L119.327 32.0405C119.516 32.7632 119.88 33.293 120.412 33.6455C120.948 34 121.671 34.1851 122.596 34.1851C123.766 34.1851 124.613 33.8818 125.17 33.3042C125.728 32.7256 126.01 31.8428 126.01 30.6245L126.01 30.2168L126.01 30.2168L126.01 27.981Q125.058 29.3105 123.764 29.957Q122.54 30.5698 121.009 30.5698Q119.083 30.5698 117.736 29.687Q117.21 29.3423 116.772 28.8633Q116.673 28.7505 116.58 28.6328Q115.242 26.9365 115.242 24.1855L115.242 14.0361L119.449 14.0361L119.449 23.2739Q119.449 24.9214 120.126 25.7451Q120.153 25.7764 120.181 25.8062Q120.892 26.5688 122.421 26.5688Q123.848 26.5688 124.718 25.8726Q124.906 25.7217 125.068 25.5391C125.696 24.8525 126.01 23.8521 126.01 22.5381L126.01 14.0361Z" clip-rule="evenodd" fill="#061224" fill-opacity="1.000000" fill-rule="evenodd"/>
	<rect id="Rectangle" rx="9.922261" width="40.000000" height="40.000000" fill="#1064E5" fill-opacity="1.000000"/>
	<rect id="Rectangle" rx="9.922261" width="40.000000" height="40.000000" stroke="#979797" stroke-opacity="0" stroke-width="0.000000"/>
	<path id="Union" d="M28.6013 33.3003Q25.0665 35.3623 20.329 35.3623Q15.5598 35.3623 11.9767 33.3008L11.9767 33.3008Q10.3878 32.3867 9.0321 31.0674Q7.65015 29.7222 6.70386 28.1201L6.70386 28.1201Q4.64868 24.6401 4.64868 19.9468Q4.64868 15.1035 6.79688 11.5635L6.797 11.5635L6.79712 11.5635Q7.67603 10.1152 8.91443 8.88525Q10.2238 7.59375 11.7627 6.69629L11.7627 6.69629L11.7627 6.69629Q15.2722 4.64893 19.976 4.64893C22.2903 4.64893 24.379 5.04102 26.2422 5.82568L25.5067 9.26758C23.9377 8.54199 22.1333 8.1792 20.0936 8.1792Q16.2191 8.1792 13.4359 9.92188L13.4359 9.92188Q12.4786 10.5215 11.6504 11.3271Q11.0679 11.8989 10.5912 12.5483L10.5912 12.5483Q8.44373 15.4741 8.44373 19.9761Q8.44373 24.2378 10.4424 27.1079Q11.0099 27.9229 11.7386 28.6255Q12.5541 29.4121 13.4916 30.0054L13.4926 30.0063Q16.377 31.832 20.4172 31.832Q22.7708 31.832 24.7124 31.1553C26.0265 30.7241 27.1934 30.0571 28.2133 29.1548C29.2528 28.2725 30.0569 27.0859 30.6256 25.5952Q31.0746 24.458 31.2952 23.1377C31.474 21.4492 31.5845 19.7437 31.2916 18.4199C31.1343 17.7085 30.8953 17.2881 30.6456 17.0479C30.4332 16.8433 30.0593 16.6177 29.2661 16.6025C27.8585 16.5747 26.2891 17.4673 24.689 19.1421C23.1382 20.7651 21.8323 22.8286 21.0315 24.3823C20.7196 24.9868 20.504 25.4849 20.504 25.4849L20.4214 25.4014L20.4211 25.4019L14.0417 18.9834L16.7419 16.2832L19.7286 19.2046C20.3774 18.2842 21.1146 17.3555 21.928 16.5044C23.7642 14.5825 26.3069 12.7256 29.3406 12.7847C30.9308 12.8154 32.278 13.3188 33.2932 14.2959C34.2712 15.2368 34.7667 16.4502 35.0201 17.5947C35.2197 18.4971 35.29 19.4663 35.2898 20.4175L35.3032 20.4175L35.3032 20.9175Q35.3032 22.6318 35.0242 24.1616L35.019 24.2065L35.016 24.2061Q34.5039 26.9683 33.079 29.1279Q32.2336 30.4097 31.0669 31.479Q29.918 32.5322 28.6023 33.2998L28.6014 33.3003L28.6013 33.3003Z" clip-rule="evenodd" fill="#FFFFFF" fill-opacity="1.000000" fill-rule="evenodd"/>
</svg>
