<svg width="60.000000" height="60.000000" viewBox="0 0 60 60" fill="none" xmlns="http://www.w3.org/2000/svg" xmlns:xlink="http://www.w3.org/1999/xlink">
	<rect id="positive-vote 1" rx="0.000000" width="59.000000" height="59.000000" transform="translate(0.500000 0.500000)" fill="#FFFFFF" fill-opacity="0"/>
	<g clip-path="url(#clip1_4765)">
		<path id="Vector" d="M58.93 25.7C58.31 24.76 57.37 24.11 56.27 23.87C56.98 22.51 56.95 20.83 56.05 19.47C55.41 18.5 54.44 17.87 53.39 17.64C53.58 17.28 53.71 16.89 53.8 16.48C54.03 15.35 53.8 14.2 53.16 13.23C52.54 12.29 51.6 11.65 50.5 11.4C51.21 10.05 51.18 8.36 50.28 7C48.96 5.01 46.27 4.46 44.28 5.78L39.98 8.63C37.68 7.47 35.24 6.64 32.7 6.17C31.9 4.96 30.97 3.83 29.93 2.82L28.15 1.09C26.84 -0.18 24.79 -0.37 23.28 0.64C21.49 1.82 20.99 4.25 22.18 6.04C22.23 6.11 22.27 6.18 22.32 6.25C16.48 7.44 11.15 10.54 7.21 15.08C2.94 20.01 0.58 26.32 0.58 32.86C0.58 34.11 0.67 35.36 0.84 36.58C2.14 46.08 8.47 54.26 17.34 57.94C20.63 59.3 24.12 60 27.72 60C33.41 60 38.86 58.25 43.48 54.95C48 51.73 51.38 47.27 53.25 42.07C53.43 41.59 53.18 41.05 52.69 40.88C52.21 40.71 51.67 40.96 51.5 41.44C49.75 46.28 46.6 50.43 42.39 53.43C38.1 56.51 33.02 58.13 27.72 58.13C24.98 58.13 22.3 57.7 19.74 56.84L27.33 51.82C27.33 51.82 27.33 51.82 27.33 51.82C27.33 51.82 27.33 51.82 27.33 51.81L33.64 47.64L33.64 47.64C34.21 47.26 34.59 46.69 34.73 46.02C34.87 45.36 34.73 44.68 34.36 44.11L34.28 43.98L35.5 43.17C36.37 42.59 37.43 42.37 38.46 42.53C39.96 42.77 41.48 42.44 42.75 41.61L52.91 34.88C52.84 35.76 52.73 36.63 52.57 37.5C52.48 38 52.81 38.49 53.32 38.58C53.37 38.59 53.43 38.6 53.49 38.6C53.93 38.6 54.32 38.29 54.4 37.84C54.66 36.44 54.81 35.02 54.85 33.59L57.71 31.7C58.68 31.06 59.33 30.08 59.56 28.95C59.8 27.82 59.57 26.66 58.93 25.7ZM38.16 9.83L35.31 11.72L34.75 10.21C34.52 9.58 34.25 8.96 33.95 8.36C35.4 8.72 36.81 9.22 38.16 9.83ZM8.62 16.3C12.41 11.94 17.57 9 23.21 7.98C24.12 10.18 24.33 12.63 23.79 14.96L21.52 24.79C21.16 24.41 20.7 24.15 20.17 24.04C19.51 23.9 18.83 24.04 18.26 24.41L11.82 28.68C11.82 28.68 11.82 28.68 11.82 28.68C11.82 28.68 11.82 28.68 11.82 28.68L2.52 34.83C2.47 34.18 2.45 33.52 2.45 32.86C2.45 26.77 4.64 20.89 8.62 16.3ZM32.9 45.65C32.87 45.83 32.76 45.98 32.61 46.08L32.61 46.08L27.07 49.75L16.79 34.41C16.5 33.99 15.92 33.87 15.49 34.16C15.06 34.45 14.95 35.03 15.24 35.45L25.51 50.78L17.6 56.02C9.75 52.58 4.12 45.32 2.77 36.87L12.07 30.73L13.14 32.33C13.32 32.6 13.62 32.74 13.92 32.74C14.1 32.74 14.28 32.69 14.44 32.59C14.87 32.3 14.98 31.72 14.69 31.29L13.63 29.71L19.29 25.97C19.44 25.87 19.62 25.83 19.8 25.87C19.98 25.9 20.13 26.01 20.23 26.16L32.8 45.14C32.9 45.29 32.94 45.47 32.9 45.65ZM57.74 28.58C57.61 29.22 57.23 29.78 56.68 30.14L53.41 32.31C53.41 32.31 53.41 32.31 53.41 32.31L41.72 40.05C40.84 40.63 39.79 40.86 38.76 40.69C37.26 40.45 35.74 40.78 34.47 41.62L33.24 42.43L22.95 26.88L25.61 15.39C26.3 12.42 25.93 9.3 24.63 6.59C24.62 6.56 24.6 6.53 24.59 6.5C24.34 5.99 24.05 5.49 23.74 5.01C23.12 4.08 23.37 2.81 24.31 2.19C25.1 1.67 26.17 1.77 26.85 2.43L28.63 4.16C30.56 6.02 32.07 8.34 33 10.86L33.97 13.47C33.98 13.48 33.98 13.48 33.98 13.49C33.98 13.49 33.98 13.5 33.99 13.51C33.99 13.52 34 13.54 34.01 13.55C34.03 13.59 34.05 13.63 34.07 13.66C34.36 14.09 34.93 14.21 35.36 13.93L45.31 7.34C46.45 6.59 47.98 6.9 48.73 8.03C49.47 9.16 49.16 10.69 48.03 11.44L47.17 12.01C47.17 12.01 47.17 12.01 47.17 12.02L45.24 13.29C45.24 13.29 45.24 13.29 45.23 13.3C45.22 13.3 45.21 13.31 45.2 13.32C44.8 13.61 44.7 14.17 44.98 14.58C45.26 15.01 45.84 15.13 46.27 14.85L48.2 13.57C48.75 13.21 49.4 13.08 50.05 13.21C50.69 13.34 51.25 13.72 51.61 14.26C51.97 14.81 52.1 15.47 51.97 16.11C51.84 16.76 51.46 17.31 50.92 17.68L48.12 19.52C47.69 19.81 47.58 20.39 47.86 20.82C48.04 21.09 48.34 21.23 48.64 21.23C48.82 21.23 49 21.18 49.15 21.08L49.59 20.79L51.08 19.8C52.21 19.05 53.74 19.36 54.49 20.5C55.24 21.63 54.93 23.16 53.8 23.91L52.41 24.83C52.4 24.84 52.39 24.84 52.38 24.85L51.01 25.76C50.58 26.04 50.46 26.62 50.75 27.05C50.92 27.32 51.22 27.47 51.52 27.47C51.7 27.47 51.88 27.42 52.04 27.31L52.47 27.03C52.47 27.03 52.47 27.03 52.47 27.03L53.97 26.04C54.51 25.67 55.17 25.55 55.81 25.68C56.46 25.81 57.01 26.18 57.38 26.73C57.74 27.28 57.87 27.93 57.74 28.58Z" fill="#1064E5" fill-opacity="1.000000" fill-rule="nonzero"/>
		<path id="Vector" d="M56.27 23.87C56.98 22.51 56.95 20.83 56.05 19.47C55.41 18.5 54.44 17.87 53.39 17.64C53.58 17.28 53.71 16.89 53.8 16.48C54.03 15.35 53.8 14.2 53.16 13.23C52.54 12.29 51.6 11.65 50.5 11.4C51.21 10.05 51.18 8.36 50.28 7C48.96 5.01 46.27 4.46 44.28 5.78L39.98 8.63C37.68 7.47 35.24 6.64 32.7 6.17C31.9 4.96 30.97 3.83 29.93 2.82L28.15 1.09C26.84 -0.18 24.79 -0.37 23.28 0.64C21.49 1.82 20.99 4.25 22.18 6.04C22.23 6.11 22.27 6.18 22.32 6.25C16.48 7.44 11.15 10.54 7.21 15.08C2.94 20.01 0.58 26.32 0.58 32.86C0.58 34.11 0.67 35.36 0.84 36.58C2.14 46.08 8.47 54.26 17.34 57.94C20.63 59.3 24.12 60 27.72 60C33.41 60 38.86 58.25 43.48 54.95C48 51.73 51.38 47.27 53.25 42.07C53.43 41.59 53.18 41.05 52.69 40.88C52.21 40.71 51.67 40.96 51.5 41.44C49.75 46.28 46.6 50.43 42.39 53.43C38.1 56.51 33.02 58.13 27.72 58.13C24.98 58.13 22.3 57.7 19.74 56.84L27.33 51.82C27.33 51.82 27.33 51.82 27.33 51.82C27.33 51.82 27.33 51.82 27.33 51.81L33.64 47.64L33.64 47.64C34.21 47.26 34.59 46.69 34.73 46.02C34.87 45.36 34.73 44.68 34.36 44.11L34.28 43.98L35.5 43.17C36.37 42.59 37.43 42.37 38.46 42.53C39.96 42.77 41.48 42.44 42.75 41.61L52.91 34.88C52.84 35.76 52.73 36.63 52.57 37.5C52.48 38 52.81 38.49 53.32 38.58C53.37 38.59 53.43 38.6 53.49 38.6C53.93 38.6 54.32 38.29 54.4 37.84C54.66 36.44 54.81 35.02 54.85 33.59L57.71 31.7C58.68 31.06 59.33 30.08 59.56 28.95C59.8 27.82 59.57 26.66 58.93 25.7C58.31 24.76 57.37 24.11 56.27 23.87ZM35.31 11.72L34.75 10.21C34.52 9.58 34.25 8.96 33.95 8.36C35.4 8.72 36.81 9.22 38.16 9.83L35.31 11.72ZM23.21 7.98C24.12 10.18 24.33 12.63 23.79 14.96L21.52 24.79C21.16 24.41 20.7 24.15 20.17 24.04C19.51 23.9 18.83 24.04 18.26 24.41L11.82 28.68C11.82 28.68 11.82 28.68 11.82 28.68C11.82 28.68 11.82 28.68 11.82 28.68L2.52 34.83C2.47 34.18 2.45 33.52 2.45 32.86C2.45 26.77 4.64 20.89 8.62 16.3C12.41 11.94 17.57 9 23.21 7.98ZM32.61 46.08L32.61 46.08L27.07 49.75L16.79 34.41C16.5 33.99 15.92 33.87 15.49 34.16C15.06 34.45 14.95 35.03 15.24 35.45L25.51 50.78L17.6 56.02C9.75 52.58 4.12 45.32 2.77 36.87L12.07 30.73L13.14 32.33C13.32 32.6 13.62 32.74 13.92 32.74C14.1 32.74 14.28 32.69 14.44 32.59C14.87 32.3 14.98 31.72 14.69 31.29L13.63 29.71L19.29 25.97C19.44 25.87 19.62 25.83 19.8 25.87C19.98 25.9 20.13 26.01 20.23 26.16L32.8 45.14C32.9 45.29 32.94 45.47 32.9 45.65C32.87 45.83 32.76 45.98 32.61 46.08ZM56.68 30.14L53.41 32.31C53.41 32.31 53.41 32.31 53.41 32.31L41.72 40.05C40.84 40.63 39.79 40.86 38.76 40.69C37.26 40.45 35.74 40.78 34.47 41.62L33.24 42.43L22.95 26.88L25.61 15.39C26.3 12.42 25.93 9.3 24.63 6.59C24.62 6.56 24.6 6.53 24.59 6.5C24.34 5.99 24.05 5.49 23.74 5.01C23.12 4.08 23.37 2.81 24.31 2.19C25.1 1.67 26.17 1.77 26.85 2.43L28.63 4.16C30.56 6.02 32.07 8.34 33 10.86L33.97 13.47C33.98 13.48 33.98 13.48 33.98 13.49C33.98 13.49 33.98 13.5 33.99 13.51C33.99 13.52 34 13.54 34.01 13.55C34.03 13.59 34.05 13.63 34.07 13.66C34.36 14.09 34.93 14.21 35.36 13.93L45.31 7.34C46.45 6.59 47.98 6.9 48.73 8.03C49.47 9.16 49.16 10.69 48.03 11.44L47.17 12.01C47.17 12.01 47.17 12.01 47.17 12.02L45.24 13.29C45.24 13.29 45.24 13.29 45.23 13.3C45.22 13.3 45.21 13.31 45.2 13.32C44.8 13.61 44.7 14.17 44.98 14.58C45.26 15.01 45.84 15.13 46.27 14.85L48.2 13.57C48.75 13.21 49.4 13.08 50.05 13.21C50.69 13.34 51.25 13.72 51.61 14.26C51.97 14.81 52.1 15.47 51.97 16.11C51.84 16.76 51.46 17.31 50.92 17.68L48.12 19.52C47.69 19.81 47.58 20.39 47.86 20.82C48.04 21.09 48.34 21.23 48.64 21.23C48.82 21.23 49 21.18 49.15 21.08L49.59 20.79L51.08 19.8C52.21 19.05 53.74 19.36 54.49 20.5C55.24 21.63 54.93 23.16 53.8 23.91L52.41 24.83C52.4 24.84 52.39 24.84 52.38 24.85L51.01 25.76C50.58 26.04 50.46 26.62 50.75 27.05C50.92 27.32 51.22 27.47 51.52 27.47C51.7 27.47 51.88 27.42 52.04 27.31L52.47 27.03C52.47 27.03 52.47 27.03 52.47 27.03L53.97 26.04C54.51 25.67 55.17 25.55 55.81 25.68C56.46 25.81 57.01 26.18 57.38 26.73C57.74 27.28 57.87 27.93 57.74 28.58C57.61 29.22 57.23 29.78 56.68 30.14Z" stroke="#1064E5" stroke-opacity="1.000000" stroke-width="1.000000"/>
	</g>
</svg>
