<svg width="28.000000" height="28.000000" viewBox="0 0 28 28" fill="none" xmlns="http://www.w3.org/2000/svg" xmlns:xlink="http://www.w3.org/1999/xlink">
	<desc>
			Created with Pixso.
	</desc>
	<defs/>
	<path id="google" d="M27.75 11.2L14.29 11.2C14.29 12.6 14.29 15.4 14.28 16.8L22.08 16.8C21.78 18.2 20.72 20.16 19.22 21.14C19.22 21.14 19.22 21.15 19.22 21.15C17.23 22.46 14.6 22.76 12.65 22.37C9.6 21.76 7.18 19.55 6.2 16.73C6.2 16.73 6.21 16.69 6.21 16.68C5.6 14.94 5.6 12.6 6.21 11.2L6.21 11.2C7 8.63 9.49 6.28 12.55 5.64C15.01 5.12 17.79 5.68 19.83 7.59C20.11 7.33 23.59 3.92 23.86 3.65C16.88 -2.67 5.7 -0.45 1.52 7.71L1.52 7.71C1.52 7.71 1.52 7.71 1.51 7.73C-0.56 11.73 -0.47 16.46 1.53 20.28C1.52 20.28 1.52 20.28 1.51 20.29C3.32 23.8 6.62 26.49 10.58 27.52C14.8 28.62 20.16 27.87 23.76 24.62C23.76 24.62 23.76 24.62 23.76 24.62C26.81 21.88 28.7 17.21 27.75 11.2Z" fill="#1064E5" fill-opacity="1.000000" fill-rule="evenodd"/>
</svg>
