<svg width="157.287109" height="107.302734" viewBox="0 0 157.287 107.303" fill="none" xmlns="http://www.w3.org/2000/svg" xmlns:xlink="http://www.w3.org/1999/xlink">
	<desc>
			Created with Pixso.
	</desc>
	<defs/>
	<path id="Vector" d="M154.85 70.78C154.9 70.76 154.95 70.73 154.99 70.7C155.03 70.68 155.08 70.66 155.11 70.64C155.16 70.61 155.2 70.58 155.25 70.54C155.29 70.52 155.33 70.49 155.37 70.46C155.41 70.43 155.44 70.4 155.48 70.36C155.52 70.33 155.56 70.3 155.6 70.26C155.63 70.23 155.67 70.19 155.7 70.16C155.74 70.12 155.78 70.08 155.81 70.05C155.85 70 155.88 69.96 155.91 69.92C155.94 69.88 155.97 69.84 156 69.81C156.05 69.74 156.1 69.66 156.14 69.59C156.15 69.57 156.16 69.56 156.17 69.55C156.17 69.53 156.18 69.52 156.19 69.51C156.23 69.43 156.27 69.35 156.31 69.28C156.33 69.23 156.34 69.18 156.36 69.14C156.38 69.09 156.4 69.04 156.42 68.99C156.43 68.94 156.45 68.89 156.46 68.83C156.48 68.79 156.49 68.75 156.5 68.7C156.52 68.65 156.52 68.6 156.53 68.54C156.54 68.5 156.55 68.45 156.56 68.4C156.56 68.35 156.57 68.3 156.57 68.25C156.57 68.2 156.58 68.15 156.58 68.1C156.58 68.05 156.58 68 156.58 67.94C156.58 67.89 156.58 67.84 156.58 67.79C156.57 67.73 156.56 67.68 156.56 67.62C156.55 67.57 156.55 67.53 156.54 67.49C156.52 67.39 156.5 67.29 156.48 67.19L139.28 3C138.83 1.34 137.13 0.36 135.47 0.8L40.87 26.15C40.84 26.15 40.82 26.16 40.79 26.17C40.74 26.19 40.68 26.21 40.63 26.23C40.58 26.24 40.54 26.26 40.5 26.28C40.44 26.3 40.4 26.32 40.35 26.34C40.3 26.36 40.26 26.39 40.21 26.41C40.17 26.43 40.12 26.46 40.08 26.48C40.04 26.51 40 26.54 39.95 26.56C39.91 26.59 39.87 26.62 39.83 26.65C39.79 26.68 39.75 26.71 39.71 26.74C39.67 26.78 39.63 26.81 39.59 26.85C39.56 26.88 39.52 26.91 39.49 26.94C39.45 26.98 39.41 27.02 39.38 27.06C39.34 27.1 39.32 27.13 39.29 27.17C39.25 27.21 39.22 27.25 39.19 27.29C39.16 27.33 39.13 27.37 39.1 27.42C39.07 27.46 39.05 27.5 39.02 27.54C38.99 27.59 38.96 27.64 38.94 27.69C38.92 27.71 38.91 27.74 38.89 27.76C38.89 27.78 38.88 27.79 38.87 27.81C38.85 27.86 38.83 27.92 38.8 27.97C38.79 28.01 38.77 28.05 38.75 28.09C38.74 28.15 38.72 28.2 38.7 28.26C38.69 28.3 38.67 28.34 38.66 28.39C38.65 28.44 38.64 28.49 38.63 28.54C38.62 28.59 38.61 28.64 38.6 28.69C38.59 28.74 38.59 28.79 38.58 28.84C38.58 28.89 38.58 28.94 38.57 28.99C38.57 29.04 38.57 29.09 38.57 29.14C38.57 29.19 38.57 29.24 38.57 29.29C38.57 29.34 38.58 29.39 38.58 29.44C38.59 29.49 38.59 29.55 38.6 29.6C38.61 29.64 38.62 29.69 38.63 29.73C38.64 29.79 38.65 29.85 38.66 29.91C38.66 29.92 38.67 29.94 38.67 29.95L43.64 48.47C44.08 50.13 45.78 51.12 47.44 50.67C49.1 50.23 50.08 48.52 49.64 46.87L46.47 35.01L79.5 51.5C79.39 51.64 79.28 51.78 79.19 51.94L59.94 85.29L54.65 65.55C54.2 63.89 52.5 62.91 50.84 63.35C49.18 63.8 48.2 65.5 48.64 67.16L49.62 70.83L34.11 74.99C32.45 75.43 31.47 77.14 31.91 78.8C32.35 80.45 34.06 81.44 35.72 80.99L51.23 76.84L55.87 94.15C56.32 95.81 58.02 96.79 59.68 96.35L154.28 71C154.38 70.97 154.47 70.94 154.57 70.9C154.61 70.89 154.66 70.87 154.7 70.85C154.75 70.83 154.8 70.81 154.85 70.78ZM148.53 61.55L115.18 42.3C115.16 42.28 115.14 42.27 115.11 42.26L130.39 20.19C131.37 18.78 131.02 16.84 129.6 15.86C128.19 14.89 126.26 15.24 125.28 16.65L99.17 54.37L50.4 30.03L134.08 7.61L148.53 61.55ZM84.58 55.05C84.73 54.78 84.84 54.49 84.91 54.2L98.81 61.14C99.51 61.49 100.29 61.55 101 61.36C101.69 61.17 102.32 60.75 102.75 60.12L111.6 47.34C111.74 47.47 111.9 47.58 112.07 47.68L145.42 66.93L65.32 88.4L84.58 55.05Z" fill="#1064E5" fill-opacity="1.000000" fill-rule="nonzero"/>
	<path id="Vector" d="M51.62 78.29L55.87 94.15C56.32 95.81 58.02 96.79 59.68 96.35L154.28 71C154.38 70.97 154.47 70.94 154.57 70.9C154.61 70.89 154.66 70.87 154.7 70.85C154.75 70.83 154.8 70.81 154.85 70.78C154.9 70.76 154.95 70.73 154.99 70.7C155.03 70.68 155.08 70.66 155.11 70.64C155.16 70.61 155.2 70.58 155.25 70.54C155.29 70.52 155.33 70.49 155.37 70.46C155.41 70.43 155.44 70.4 155.48 70.36C155.52 70.33 155.56 70.3 155.6 70.26C155.63 70.23 155.67 70.19 155.7 70.16C155.74 70.12 155.78 70.08 155.81 70.05C155.85 70 155.88 69.96 155.91 69.92C155.94 69.88 155.97 69.84 156 69.81C156.05 69.74 156.1 69.66 156.14 69.59C156.15 69.57 156.16 69.56 156.17 69.55C156.17 69.53 156.18 69.52 156.19 69.51C156.23 69.43 156.27 69.35 156.31 69.28C156.33 69.23 156.34 69.18 156.36 69.14C156.38 69.09 156.4 69.04 156.42 68.99C156.43 68.94 156.45 68.89 156.46 68.83C156.48 68.79 156.49 68.75 156.5 68.7C156.52 68.65 156.52 68.6 156.53 68.54C156.54 68.5 156.55 68.45 156.56 68.4C156.56 68.35 156.57 68.3 156.57 68.25C156.57 68.2 156.58 68.15 156.58 68.1C156.58 68.05 156.58 68 156.58 67.94C156.58 67.89 156.58 67.84 156.58 67.79C156.57 67.73 156.56 67.68 156.56 67.62C156.55 67.57 156.55 67.53 156.54 67.49C156.52 67.39 156.5 67.29 156.48 67.19L139.28 3C138.83 1.34 137.13 0.36 135.47 0.8L40.87 26.15C40.84 26.15 40.82 26.16 40.79 26.17C40.74 26.19 40.68 26.21 40.63 26.23C40.58 26.24 40.54 26.26 40.5 26.28C40.44 26.3 40.4 26.32 40.35 26.34C40.3 26.36 40.26 26.39 40.21 26.41C40.17 26.43 40.12 26.46 40.08 26.48C40.04 26.51 40 26.54 39.95 26.56C39.91 26.59 39.87 26.62 39.83 26.65C39.79 26.68 39.75 26.71 39.71 26.74C39.67 26.78 39.63 26.81 39.59 26.85C39.56 26.88 39.52 26.91 39.49 26.94C39.45 26.98 39.41 27.02 39.38 27.06C39.34 27.1 39.32 27.13 39.29 27.17C39.25 27.21 39.22 27.25 39.19 27.29C39.16 27.33 39.13 27.37 39.1 27.42C39.07 27.46 39.05 27.5 39.02 27.54C38.99 27.59 38.96 27.64 38.94 27.69C38.92 27.71 38.91 27.74 38.89 27.76C38.89 27.78 38.88 27.79 38.87 27.81C38.85 27.86 38.83 27.92 38.8 27.97C38.79 28.01 38.77 28.05 38.75 28.09C38.74 28.15 38.72 28.2 38.7 28.26C38.69 28.3 38.67 28.34 38.66 28.39C38.65 28.44 38.64 28.49 38.63 28.54C38.62 28.59 38.61 28.64 38.6 28.69C38.59 28.74 38.59 28.79 38.58 28.84C38.58 28.89 38.58 28.94 38.57 28.99C38.57 29.04 38.57 29.09 38.57 29.14C38.57 29.19 38.57 29.24 38.57 29.29C38.57 29.34 38.58 29.39 38.58 29.44C38.59 29.49 38.59 29.55 38.6 29.6C38.61 29.64 38.62 29.69 38.63 29.73C38.64 29.79 38.65 29.85 38.66 29.91C38.66 29.92 38.67 29.94 38.67 29.95L43.64 48.47C44.08 50.13 45.78 51.12 47.44 50.67C49.1 50.23 50.08 48.52 49.64 46.87L46.47 35.01L48.26 35.91L78.13 50.82L79.5 51.5C79.39 51.64 79.28 51.78 79.19 51.94L78.7 52.78L61 83.45L59.94 85.29L54.65 65.55C54.2 63.89 52.5 62.91 50.84 63.35C49.18 63.8 48.2 65.5 48.64 67.16L49.62 70.83L34.11 74.99C32.45 75.43 31.47 77.14 31.91 78.8C32.35 80.45 34.06 81.44 35.72 80.99L51.23 76.84L51.62 78.29ZM154.32 69.36Q154.28 69.38 154.26 69.4L154.25 69.4Q154.24 69.4 154.23 69.42Q154.19 69.44 154.19 69.44L154.16 69.45Q154.13 69.46 154.11 69.47Q154.09 69.48 154.04 69.5L154.04 69.5Q153.96 69.53 153.89 69.55L59.29 94.9Q58.51 95.1 58.02 94.82Q57.53 94.54 57.32 93.76L52.29 75L35.33 79.55Q34.55 79.75 34.06 79.47Q33.57 79.18 33.36 78.41Q33.15 77.63 33.43 77.14Q33.72 76.64 34.5 76.44L51.46 71.89L50.09 66.77Q49.88 66 50.17 65.5Q50.45 65.01 51.23 64.8Q52 64.59 52.5 64.88Q52.99 65.16 53.2 65.94L59.42 89.17L80.49 52.69Q80.55 52.58 80.65 52.46L81.87 51L44.16 32.18L48.19 47.25Q48.4 48.03 48.12 48.52Q47.83 49.02 47.05 49.22Q46.28 49.43 45.78 49.15Q45.29 48.86 45.08 48.09L40.13 29.6Q40.12 29.57 40.12 29.54Q40.11 29.52 40.1 29.45Q40.1 29.44 40.09 29.42L40.09 29.39Q40.08 29.37 40.08 29.31Q40.08 29.29 40.07 29.25L40.07 29.23Q40.07 29.22 40.07 29.18Q40.07 29.15 40.07 29.15Q40.07 29.13 40.07 29.11Q40.07 29.07 40.07 29.07Q40.07 29.06 40.08 29.02Q40.08 29 40.08 28.98L40.08 28.97L40.08 28.91Q40.08 28.91 40.09 28.87Q40.1 28.85 40.1 28.84Q40.1 28.83 40.11 28.81Q40.12 28.76 40.12 28.75L40.13 28.73Q40.13 28.7 40.14 28.69Q40.16 28.62 40.16 28.6Q40.16 28.6 40.18 28.57Q40.19 28.55 40.19 28.54Q40.22 28.48 40.22 28.46Q40.23 28.45 40.24 28.43Q40.25 28.42 40.26 28.4Q40.29 28.34 40.31 28.31Q40.32 28.3 40.34 28.25Q40.37 28.22 40.39 28.18Q40.41 28.16 40.43 28.13Q40.47 28.09 40.48 28.08Q40.52 28.03 40.55 28.01Q40.57 27.99 40.59 27.96Q40.63 27.93 40.66 27.9Q40.68 27.89 40.73 27.85Q40.75 27.84 40.78 27.82Q40.82 27.79 40.86 27.77Q40.88 27.75 40.92 27.73Q40.96 27.71 40.99 27.7Q41.02 27.68 41.07 27.66Q41.11 27.65 41.13 27.64Q41.16 27.63 41.23 27.61Q41.26 27.6 41.29 27.59L135.86 2.25Q136.18 2.16 136.49 2.2Q136.79 2.24 137.08 2.41Q137.37 2.58 137.55 2.82Q137.74 3.06 137.83 3.39L155.03 67.58Q155.05 67.65 155.06 67.74L155.06 67.73Q155.06 67.77 155.07 67.8Q155.07 67.81 155.07 67.84Q155.08 67.89 155.08 67.9L155.08 67.91Q155.08 67.95 155.08 67.97Q155.08 67.99 155.08 68.02L155.08 68.05L155.08 68.08Q155.08 68.11 155.08 68.12Q155.07 68.14 155.07 68.18L155.07 68.2L155.07 68.23Q155.06 68.26 155.06 68.28Q155.05 68.3 155.05 68.33L155.04 68.36L155.04 68.37Q155.03 68.41 155.02 68.43Q155.02 68.44 155.01 68.47L155 68.52L154.99 68.53Q154.97 68.57 154.97 68.59Q154.96 68.61 154.94 68.64L154.94 68.65Q154.92 68.7 154.88 68.77L154.87 68.79L154.86 68.8L154.86 68.8Q154.86 68.81 154.85 68.82Q154.81 68.89 154.78 68.93L154.78 68.94Q154.75 68.97 154.74 68.99Q154.72 69 154.7 69.03L154.68 69.06L154.67 69.07Q154.64 69.1 154.63 69.11Q154.61 69.13 154.59 69.15L154.57 69.18L154.56 69.18Q154.53 69.21 154.51 69.22Q154.5 69.23 154.48 69.25L154.45 69.28L154.44 69.28Q154.41 69.3 154.39 69.31Q154.38 69.32 154.35 69.34L154.32 69.37L154.32 69.36ZM114.46 43.61Q114.43 43.6 114.41 43.59L112.92 42.8L129.16 19.33Q129.62 18.67 129.52 18.11Q129.41 17.55 128.75 17.1Q128.09 16.64 127.53 16.74Q126.97 16.84 126.51 17.5L99.66 56.29L46.19 29.61L135.14 5.77L150.91 64.66L114.46 43.61ZM116.42 43.01L115.18 42.3C115.16 42.28 115.14 42.27 115.11 42.26L115.97 41.02L130.39 20.19C131.37 18.78 131.02 16.84 129.6 15.86C128.19 14.89 126.26 15.24 125.28 16.65L99.17 54.37L52.43 31.04L50.4 30.03L134.08 7.61L148.53 61.55L116.42 43.01ZM99.48 59.79L85.58 52.86L83.88 52.01L83.45 53.86Q83.41 54.01 83.35 54.14Q83.32 54.22 83.28 54.3L62.21 90.78L149.3 67.45L112.82 46.38Q112.7 46.31 112.57 46.21L111.31 45.12L101.52 59.27Q101.35 59.51 101.12 59.67Q100.89 59.83 100.61 59.91Q100.32 59.99 100.04 59.96Q99.75 59.93 99.48 59.79ZM84.28 55.56L66.38 86.56L65.32 88.4L145.42 66.93L143.58 65.87L112.16 47.73L112.07 47.68C111.9 47.58 111.74 47.47 111.6 47.34L110.74 48.58L102.75 60.12C102.32 60.75 101.69 61.17 101 61.36C100.29 61.55 99.51 61.49 98.81 61.14L86.28 54.88L84.91 54.2C84.84 54.49 84.73 54.78 84.58 55.05L84.28 55.56Z" fill="#DEEEFC" fill-opacity="1.000000" fill-rule="evenodd"/>
	<path id="Vector" d="M12.16 70.5L62.88 56.91C64.54 56.46 65.52 54.76 65.08 53.1C64.64 51.44 62.93 50.46 61.27 50.9L10.55 64.49C8.89 64.94 7.91 66.64 8.35 68.3C8.8 69.96 10.5 70.94 12.16 70.5Z" fill="#1064E5" fill-opacity="1.000000" fill-rule="nonzero"/>
	<path id="Vector" d="M62.88 56.91L12.16 70.5C10.5 70.94 8.8 69.96 8.35 68.3C7.91 66.64 8.89 64.94 10.55 64.49L61.27 50.9C62.93 50.46 64.64 51.44 65.08 53.1C65.52 54.76 64.54 56.46 62.88 56.91ZM62.85 55.31Q62.69 55.41 62.49 55.46L11.77 69.05Q11.58 69.1 11.39 69.1Q11.26 69.11 11.14 69.09Q11 69.07 10.87 69.03Q10.71 68.98 10.55 68.89Q10.4 68.8 10.27 68.68Q10.17 68.59 10.09 68.48Q10.01 68.38 9.95 68.27Q9.85 68.1 9.8 67.91Q9.75 67.72 9.75 67.52Q9.75 67.4 9.76 67.27Q9.78 67.14 9.82 67.01Q9.88 66.84 9.96 66.69Q10.05 66.54 10.17 66.41Q10.26 66.31 10.37 66.22Q10.47 66.15 10.58 66.08Q10.75 65.99 10.94 65.94L61.66 52.35Q61.85 52.3 62.05 52.29Q62.17 52.29 62.3 52.31Q62.43 52.33 62.57 52.37Q62.73 52.42 62.88 52.51Q63.03 52.6 63.16 52.71Q63.26 52.81 63.35 52.92Q63.42 53.02 63.49 53.13Q63.58 53.3 63.63 53.49Q63.68 53.68 63.69 53.87Q63.69 54 63.67 54.12Q63.65 54.26 63.61 54.39Q63.56 54.56 63.47 54.71Q63.38 54.86 63.27 54.99Q63.17 55.09 63.07 55.17Q62.97 55.25 62.85 55.31Z" fill="#DEEEFC" fill-opacity="1.000000" fill-rule="evenodd"/>
	<path id="Vector" d="M12.98 52.54L35.76 46.44C37.41 45.99 38.4 44.29 37.95 42.63C37.51 40.97 35.81 39.99 34.15 40.43L11.37 46.53C9.71 46.98 8.73 48.68 9.17 50.34C9.62 52 11.32 52.98 12.98 52.54Z" fill="#1064E5" fill-opacity="1.000000" fill-rule="nonzero"/>
	<path id="Vector" d="M35.76 46.44L12.98 52.54C11.32 52.98 9.62 52 9.17 50.34C8.73 48.68 9.71 46.98 11.37 46.53L34.15 40.43C35.81 39.99 37.51 40.97 37.95 42.63C38.4 44.29 37.41 45.99 35.76 46.44ZM35.73 44.84Q35.56 44.94 35.37 44.99L12.59 51.09Q12.4 51.14 12.21 51.15Q12.08 51.15 11.96 51.13Q11.82 51.11 11.69 51.07Q11.53 51.02 11.37 50.93Q11.22 50.84 11.09 50.73Q10.99 50.63 10.91 50.52Q10.83 50.42 10.77 50.31Q10.67 50.15 10.62 49.95Q10.57 49.76 10.57 49.57Q10.57 49.44 10.58 49.32Q10.6 49.18 10.64 49.05Q10.7 48.88 10.78 48.73Q10.87 48.58 10.99 48.45Q11.08 48.35 11.19 48.27Q11.29 48.19 11.4 48.13Q11.57 48.03 11.76 47.98L34.53 41.88Q34.73 41.83 34.92 41.82Q35.05 41.82 35.17 41.84Q35.31 41.86 35.44 41.9Q35.6 41.95 35.76 42.04Q35.91 42.13 36.04 42.24Q36.14 42.34 36.22 42.45Q36.3 42.55 36.36 42.66Q36.45 42.83 36.5 43.02Q36.56 43.21 36.56 43.4Q36.56 43.53 36.55 43.66Q36.53 43.79 36.49 43.92Q36.43 44.09 36.34 44.24Q36.26 44.39 36.14 44.52Q36.05 44.62 35.94 44.7Q35.84 44.78 35.73 44.84Z" fill="#DEEEFC" fill-opacity="1.000000" fill-rule="evenodd"/>
	<path id="Vector" d="M40.17 86.95L18.15 92.85C16.49 93.3 15.51 95 15.95 96.66C16.4 98.32 18.1 99.3 19.76 98.86L41.78 92.96C43.44 92.51 44.43 90.81 43.98 89.15C43.54 87.49 41.83 86.51 40.17 86.95Z" fill="#1064E5" fill-opacity="1.000000" fill-rule="nonzero"/>
	<path id="Vector" d="M18.15 92.85L40.17 86.95C41.83 86.51 43.54 87.49 43.98 89.15C44.43 90.81 43.44 92.51 41.78 92.96L19.76 98.86C18.1 99.3 16.4 98.32 15.95 96.66C15.51 95 16.49 93.3 18.15 92.85ZM18.18 94.45Q18.35 94.35 18.54 94.3L40.56 88.4Q40.76 88.35 40.95 88.35Q41.08 88.34 41.2 88.36Q41.34 88.38 41.47 88.42Q41.63 88.47 41.78 88.56Q41.94 88.65 42.07 88.77Q42.16 88.86 42.25 88.97Q42.33 89.07 42.39 89.18Q42.48 89.35 42.53 89.54Q42.58 89.73 42.59 89.93Q42.59 90.05 42.58 90.18Q42.56 90.31 42.51 90.44Q42.46 90.61 42.37 90.76Q42.29 90.91 42.17 91.04Q42.08 91.14 41.97 91.23Q41.87 91.3 41.76 91.36Q41.59 91.46 41.4 91.51L19.37 97.41Q19.18 97.46 18.99 97.47Q18.86 97.47 18.74 97.45Q18.6 97.43 18.47 97.39Q18.31 97.34 18.15 97.25Q18 97.16 17.87 97.05Q17.77 96.95 17.69 96.85Q17.61 96.75 17.55 96.64Q17.45 96.47 17.4 96.27Q17.35 96.08 17.35 95.89Q17.34 95.76 17.36 95.64Q17.38 95.5 17.42 95.37Q17.48 95.2 17.56 95.05Q17.65 94.9 17.77 94.77Q17.86 94.67 17.97 94.59Q18.07 94.51 18.18 94.45Z" fill="#DEEEFC" fill-opacity="1.000000" fill-rule="evenodd"/>
</svg>
