<svg width="24.000000" height="24.000000" viewBox="0 0 24 24" fill="none" xmlns="http://www.w3.org/2000/svg" xmlns:xlink="http://www.w3.org/1999/xlink">
	<desc>
			Created with Pixso.
	</desc>
	<defs>
		<clipPath id="clip1_2462">
			<rect id="ant-design:phone-filled" rx="0.000000" width="23.000000" height="23.000000" transform="translate(0.500000 0.500000)" fill="white" fill-opacity="0"/>
		</clipPath>
	</defs>
	<rect id="ant-design:phone-filled" rx="0.000000" width="23.000000" height="23.000000" transform="translate(0.500000 0.500000)" fill="#FFFFFF" fill-opacity="0"/>
	<g clip-path="url(#clip1_2462)">
		<path id="Vector" d="M20.75 5.39L18.25 2.9C18.08 2.72 17.87 2.58 17.64 2.48C17.41 2.39 17.16 2.34 16.91 2.34C16.4 2.34 15.93 2.54 15.57 2.9L12.88 5.58C12.7 5.76 12.56 5.97 12.47 6.2C12.37 6.43 12.32 6.68 12.32 6.93C12.32 7.43 12.52 7.91 12.88 8.27L14.84 10.23C14.39 11.25 13.75 12.17 12.96 12.96C12.17 13.75 11.25 14.39 10.24 14.85L8.27 12.89C8.1 12.71 7.89 12.57 7.66 12.47C7.43 12.38 7.18 12.33 6.93 12.33C6.42 12.33 5.94 12.53 5.58 12.89L2.9 15.57C2.72 15.75 2.58 15.96 2.48 16.19C2.39 16.42 2.34 16.66 2.34 16.91C2.34 17.42 2.54 17.9 2.9 18.26L5.39 20.75C5.96 21.33 6.75 21.65 7.56 21.65C7.73 21.65 7.9 21.64 8.06 21.61C11.22 21.09 14.35 19.41 16.88 16.88C19.41 14.36 21.08 11.23 21.61 8.06C21.77 7.09 21.45 6.09 20.75 5.39Z" fill="#1064E5" fill-opacity="1.000000" fill-rule="nonzero"/>
	</g>
</svg>
