<svg width="60.000000" height="60.000000" viewBox="0 0 60 60" fill="none" xmlns="http://www.w3.org/2000/svg" xmlns:xlink="http://www.w3.org/1999/xlink">
	<rect id="speedometer 1" rx="0.000000" width="59.000000" height="59.000000" transform="translate(0.500000 0.500000)" fill="#FFFFFF" fill-opacity="0"/>
	<g clip-path="url(#clip1_4752)">
		<path id="Vector" d="M26.25 35.16C26.25 37.23 27.93 38.91 30 38.91C32.06 38.91 33.74 37.23 33.74 35.16C33.74 34.65 33.33 34.23 32.81 34.23C32.29 34.23 31.87 34.65 31.87 35.16C31.87 36.2 31.03 37.04 30 37.04C28.96 37.04 28.12 36.2 28.12 35.16C28.12 34.97 28.15 34.78 28.2 34.61C28.24 34.56 28.27 34.51 28.29 34.45C28.31 34.4 28.33 34.34 28.34 34.29C28.66 33.69 29.28 33.29 30 33.29C30.51 33.29 30.93 32.87 30.93 32.35C30.93 31.83 30.51 31.41 30 31.41C28.77 31.41 27.69 32 27 32.91L12.72 27.02C12.24 26.82 11.7 27.05 11.5 27.53C11.3 28.01 11.53 28.56 12.01 28.75L26.28 34.64C26.26 34.81 26.25 34.99 26.25 35.16Z" fill="#1064E5" fill-opacity="1.000000" fill-rule="nonzero"/>
		<path id="Vector" d="M30 38.91C32.06 38.91 33.74 37.23 33.74 35.16C33.74 34.65 33.33 34.23 32.81 34.23C32.29 34.23 31.87 34.65 31.87 35.16C31.87 36.2 31.03 37.04 30 37.04C28.96 37.04 28.12 36.2 28.12 35.16C28.12 34.97 28.15 34.78 28.2 34.61C28.24 34.56 28.27 34.51 28.29 34.45C28.31 34.4 28.33 34.34 28.34 34.29C28.66 33.69 29.28 33.29 30 33.29C30.51 33.29 30.93 32.87 30.93 32.35C30.93 31.83 30.51 31.41 30 31.41C28.77 31.41 27.69 32 27 32.91L12.72 27.02C12.24 26.82 11.7 27.05 11.5 27.53C11.3 28.01 11.53 28.56 12.01 28.75L26.28 34.64C26.26 34.81 26.25 34.99 26.25 35.16C26.25 37.23 27.93 38.91 30 38.91Z" stroke="#1064E5" stroke-opacity="1.000000" stroke-width="0.500000"/>
		<path id="Vector" d="M51.21 13.95C45.54 8.29 38.01 5.16 30 5.16C21.98 5.16 14.45 8.29 8.78 13.95C3.12 19.62 0 27.15 0 35.16C0 41.03 1.7 46.72 4.91 51.62C5.09 51.89 5.39 52.04 5.7 52.04C5.87 52.04 6.05 51.99 6.21 51.89C6.64 51.6 6.76 51.02 6.48 50.59C5.68 49.37 4.98 48.1 4.38 46.79L6.97 45.72C7.45 45.52 7.67 44.97 7.47 44.49C7.28 44.01 6.73 43.79 6.25 43.99L3.66 45.06C2.59 42.2 1.99 39.18 1.89 36.1L4.68 36.1C5.2 36.1 5.62 35.68 5.62 35.16C5.62 34.65 5.2 34.23 4.68 34.23L1.89 34.23C1.99 31.12 2.59 28.1 3.65 25.27L6.25 26.34C6.37 26.39 6.49 26.41 6.61 26.41C6.98 26.41 7.33 26.2 7.47 25.84C7.67 25.36 7.45 24.81 6.97 24.61L4.37 23.54C5.62 20.78 7.33 18.22 9.46 15.95L11.43 17.93C11.62 18.11 11.86 18.2 12.1 18.2C12.34 18.2 12.58 18.11 12.76 17.93C13.12 17.56 13.12 16.97 12.76 16.6L10.78 14.63C13.05 12.5 15.61 10.79 18.37 9.54L19.44 12.14C19.59 12.5 19.94 12.72 20.31 12.72C20.43 12.72 20.55 12.69 20.67 12.64C21.15 12.45 21.37 11.9 21.17 11.42L20.1 8.82C22.94 7.76 25.95 7.16 29.06 7.06L29.06 9.85C29.06 10.37 29.48 10.79 30 10.79C30.51 10.79 30.93 10.37 30.93 9.85L30.93 7.06C34.04 7.16 37.05 7.76 39.89 8.82L38.82 11.42C38.62 11.9 38.85 12.45 39.32 12.64C39.44 12.69 39.56 12.72 39.68 12.72C40.05 12.72 40.4 12.5 40.55 12.14L41.62 9.54C44.38 10.79 46.94 12.5 49.21 14.63L47.23 16.6C46.87 16.97 46.87 17.56 47.23 17.93C47.41 18.11 47.65 18.2 47.89 18.2C48.13 18.2 48.37 18.11 48.56 17.93L50.53 15.95C52.66 18.22 54.37 20.78 55.62 23.54L53.02 24.61C52.54 24.81 52.32 25.36 52.52 25.84C52.67 26.2 53.01 26.41 53.38 26.41C53.5 26.41 53.62 26.39 53.74 26.34L56.34 25.27C57.4 28.11 58 31.12 58.1 34.23L55.31 34.23C54.79 34.23 54.37 34.65 54.37 35.16C54.37 35.68 54.79 36.1 55.31 36.1L58.11 36.1C58 39.18 57.4 42.2 56.33 45.06L53.74 43.99C53.26 43.79 52.71 44.01 52.52 44.49C52.32 44.97 52.54 45.52 53.02 45.72L55.61 46.79C55.01 48.1 54.31 49.37 53.51 50.59C53.23 51.02 53.35 51.6 53.78 51.89C54.21 52.17 54.79 52.05 55.08 51.62C58.29 46.72 60 41.03 60 35.16C60 27.15 56.87 19.62 51.21 13.95Z" fill="#1064E5" fill-opacity="1.000000" fill-rule="nonzero"/>
		<path id="Vector" d="M30 5.16C21.98 5.16 14.45 8.29 8.78 13.95C3.12 19.62 0 27.15 0 35.16C0 41.03 1.7 46.72 4.91 51.62C5.09 51.89 5.39 52.04 5.7 52.04C5.87 52.04 6.05 51.99 6.21 51.89C6.64 51.6 6.76 51.02 6.48 50.59C5.68 49.37 4.98 48.1 4.38 46.79L6.97 45.72C7.45 45.52 7.67 44.97 7.47 44.49C7.28 44.01 6.73 43.79 6.25 43.99L3.66 45.06C2.59 42.2 1.99 39.18 1.89 36.1L4.68 36.1C5.2 36.1 5.62 35.68 5.62 35.16C5.62 34.65 5.2 34.23 4.68 34.23L1.89 34.23C1.99 31.12 2.59 28.1 3.65 25.27L6.25 26.34C6.37 26.39 6.49 26.41 6.61 26.41C6.98 26.41 7.33 26.2 7.47 25.84C7.67 25.36 7.45 24.81 6.97 24.61L4.37 23.54C5.62 20.78 7.33 18.22 9.46 15.95L11.43 17.93C11.62 18.11 11.86 18.2 12.1 18.2C12.34 18.2 12.58 18.11 12.76 17.93C13.12 17.56 13.12 16.97 12.76 16.6L10.78 14.63C13.05 12.5 15.61 10.79 18.37 9.54L19.44 12.14C19.59 12.5 19.94 12.72 20.31 12.72C20.43 12.72 20.55 12.69 20.67 12.64C21.15 12.45 21.37 11.9 21.17 11.42L20.1 8.82C22.94 7.76 25.95 7.16 29.06 7.06L29.06 9.85C29.06 10.37 29.48 10.79 30 10.79C30.51 10.79 30.93 10.37 30.93 9.85L30.93 7.06C34.04 7.16 37.05 7.76 39.89 8.82L38.82 11.42C38.62 11.9 38.85 12.45 39.32 12.64C39.44 12.69 39.56 12.72 39.68 12.72C40.05 12.72 40.4 12.5 40.55 12.14L41.62 9.54C44.38 10.79 46.94 12.5 49.21 14.63L47.23 16.6C46.87 16.97 46.87 17.56 47.23 17.93C47.41 18.11 47.65 18.2 47.89 18.2C48.13 18.2 48.37 18.11 48.56 17.93L50.53 15.95C52.66 18.22 54.37 20.78 55.62 23.54L53.02 24.61C52.54 24.81 52.32 25.36 52.52 25.84C52.67 26.2 53.01 26.41 53.38 26.41C53.5 26.41 53.62 26.39 53.74 26.34L56.34 25.27C57.4 28.11 58 31.12 58.1 34.23L55.31 34.23C54.79 34.23 54.37 34.65 54.37 35.16C54.37 35.68 54.79 36.1 55.31 36.1L58.11 36.1C58 39.18 57.4 42.2 56.33 45.06L53.74 43.99C53.26 43.79 52.71 44.01 52.52 44.49C52.32 44.97 52.54 45.52 53.02 45.72L55.61 46.79C55.01 48.1 54.31 49.37 53.51 50.59C53.23 51.02 53.35 51.6 53.78 51.89C54.21 52.17 54.79 52.05 55.08 51.62C58.29 46.72 60 41.03 60 35.16C60 27.15 56.87 19.62 51.21 13.95C45.54 8.29 38.01 5.16 30 5.16Z" stroke="#1064E5" stroke-opacity="1.000000" stroke-width="0.500000"/>
		<path id="Vector" d="M38.41 45.46L21.55 45.46C20 45.46 18.74 46.72 18.74 48.27L18.74 52.02C18.74 53.56 20 54.83 21.55 54.83L38.41 54.83C39.96 54.83 41.22 53.56 41.22 52.02L41.22 48.27C41.22 46.72 39.96 45.46 38.41 45.46ZM39.35 52.02C39.35 52.53 38.93 52.95 38.41 52.95L21.55 52.95C21.03 52.95 20.61 52.53 20.61 52.02L20.61 48.27C20.61 47.75 21.03 47.33 21.55 47.33L38.41 47.33C38.93 47.33 39.35 47.75 39.35 48.27L39.35 52.02Z" fill="#1064E5" fill-opacity="1.000000" fill-rule="nonzero"/>
		<path id="Vector" d="M21.55 45.46C20 45.46 18.74 46.72 18.74 48.27L18.74 52.02C18.74 53.56 20 54.83 21.55 54.83L38.41 54.83C39.96 54.83 41.22 53.56 41.22 52.02L41.22 48.27C41.22 46.72 39.96 45.46 38.41 45.46L21.55 45.46ZM38.41 52.95L21.55 52.95C21.03 52.95 20.61 52.53 20.61 52.02L20.61 48.27C20.61 47.75 21.03 47.33 21.55 47.33L38.41 47.33C38.93 47.33 39.35 47.75 39.35 48.27L39.35 52.02C39.35 52.53 38.93 52.95 38.41 52.95Z" stroke="#1064E5" stroke-opacity="1.000000" stroke-width="0.500000"/>
		<path id="Vector" d="M30.92 49.2L29.04 49.2C28.52 49.2 28.11 49.62 28.11 50.14C28.11 50.66 28.52 51.08 29.04 51.08L30.92 51.08C31.43 51.08 31.85 50.66 31.85 50.14C31.85 49.62 31.43 49.2 30.92 49.2Z" fill="#1064E5" fill-opacity="1.000000" fill-rule="nonzero"/>
		<path id="Vector" d="M29.04 49.2C28.52 49.2 28.11 49.62 28.11 50.14C28.11 50.66 28.52 51.08 29.04 51.08L30.92 51.08C31.43 51.08 31.85 50.66 31.85 50.14C31.85 49.62 31.43 49.2 30.92 49.2L29.04 49.2Z" stroke="#1064E5" stroke-opacity="1.000000" stroke-width="0.500000"/>
		<path id="Vector" d="M26.23 49.2L24.36 49.2C23.84 49.2 23.42 49.62 23.42 50.14C23.42 50.66 23.84 51.08 24.36 51.08L26.23 51.08C26.75 51.08 27.17 50.66 27.17 50.14C27.17 49.62 26.75 49.2 26.23 49.2Z" fill="#1064E5" fill-opacity="1.000000" fill-rule="nonzero"/>
		<path id="Vector" d="M24.36 49.2C23.84 49.2 23.42 49.62 23.42 50.14C23.42 50.66 23.84 51.08 24.36 51.08L26.23 51.08C26.75 51.08 27.17 50.66 27.17 50.14C27.17 49.62 26.75 49.2 26.23 49.2L24.36 49.2Z" stroke="#1064E5" stroke-opacity="1.000000" stroke-width="0.500000"/>
		<path id="Vector" d="M35.6 49.2L33.73 49.2C33.21 49.2 32.79 49.62 32.79 50.14C32.79 50.66 33.21 51.08 33.73 51.08L35.6 51.08C36.12 51.08 36.54 50.66 36.54 50.14C36.54 49.62 36.12 49.2 35.6 49.2Z" fill="#1064E5" fill-opacity="1.000000" fill-rule="nonzero"/>
		<path id="Vector" d="M33.73 49.2C33.21 49.2 32.79 49.62 32.79 50.14C32.79 50.66 33.21 51.08 33.73 51.08L35.6 51.08C36.12 51.08 36.54 50.66 36.54 50.14C36.54 49.62 36.12 49.2 35.6 49.2L33.73 49.2Z" stroke="#1064E5" stroke-opacity="1.000000" stroke-width="0.500000"/>
	</g>
</svg>
