<svg width="28.000000" height="24.888672" viewBox="0 0 28 24.8887" fill="none" xmlns="http://www.w3.org/2000/svg" xmlns:xlink="http://www.w3.org/1999/xlink">
	<desc>
			Created with Pixso.
	</desc>
	<defs/>
	<path id="twitter" d="M8.8 24.88C19.37 24.88 25.15 15.31 25.15 7C25.15 6.73 25.15 6.46 25.13 6.19C26.25 5.3 27.22 4.2 28 2.94C26.95 3.45 25.83 3.78 24.7 3.93C25.89 3.14 26.79 1.91 27.22 0.45C26.09 1.18 24.86 1.7 23.57 1.98C21.4 -0.55 17.76 -0.68 15.45 1.7C13.95 3.24 13.32 5.53 13.78 7.71C9.16 7.45 4.86 5.07 1.94 1.14C0.42 4.01 1.2 7.69 3.72 9.53C2.81 9.5 1.91 9.23 1.12 8.75L1.12 8.82C1.12 11.82 3.04 14.39 5.72 14.98C4.88 15.24 3.99 15.27 3.13 15.09C3.88 17.65 6.04 19.41 8.5 19.46C6.46 21.21 3.95 22.15 1.36 22.15C0.91 22.15 0.45 22.12 0 22.06C2.62 23.91 5.68 24.88 8.8 24.88L8.8 24.88Z" fill="#1064E5" fill-opacity="1.000000" fill-rule="evenodd"/>
</svg>
