<svg width="60.000000" height="60.000000" viewBox="0 0 60 60" fill="none" xmlns="http://www.w3.org/2000/svg" xmlns:xlink="http://www.w3.org/1999/xlink">
	<rect id="piggy-bank 1" rx="0.000000" width="59.000000" height="59.000000" transform="translate(0.500000 0.500000)" fill="#FFFFFF" fill-opacity="0"/>
	<g clip-path="url(#clip1_4772)">
		<path id="Vector" d="M49.51 31.71C49.03 31.71 48.63 32.1 48.63 32.58C48.63 33.19 48.14 33.69 47.53 33.69C46.91 33.69 46.42 33.19 46.42 32.58C46.42 32.1 46.03 31.71 45.54 31.71C45.06 31.71 44.67 32.1 44.67 32.58C44.67 34.15 45.95 35.44 47.53 35.44C49.1 35.44 50.38 34.15 50.38 32.58C50.38 32.1 49.99 31.71 49.51 31.71Z" fill="#1064E5" fill-opacity="1.000000" fill-rule="nonzero"/>
		<path id="Vector" d="M48.63 32.58C48.63 33.19 48.14 33.69 47.53 33.69C46.91 33.69 46.42 33.19 46.42 32.58C46.42 32.1 46.03 31.71 45.54 31.71C45.06 31.71 44.67 32.1 44.67 32.58C44.67 34.15 45.95 35.44 47.53 35.44C49.1 35.44 50.38 34.15 50.38 32.58C50.38 32.1 49.99 31.71 49.51 31.71C49.03 31.71 48.63 32.1 48.63 32.58Z" stroke="#1064E5" stroke-opacity="1.000000" stroke-width="1.000000"/>
		<path id="Vector" d="M57.7 31.85L55.25 31.06C54.93 30.96 54.68 30.71 54.58 30.39C54.06 28.74 53.28 27.2 52.26 25.8C51.79 25.16 51.27 24.55 50.71 23.96C51.07 22.37 51.27 20.57 51.24 19.02C51.2 16.79 50.76 15.49 49.88 15.03C49.41 14.78 47.97 14.03 40.18 17.59C40 17.68 39.82 17.78 39.66 17.9C39.14 17.76 38.6 17.63 38.06 17.51C38 17.5 37.93 17.49 37.87 17.47C38.5 16.09 38.86 14.6 38.93 13.05C38.96 12.57 38.58 12.16 38.1 12.14C37.62 12.11 37.21 12.49 37.19 12.97C37.08 15.51 36.02 17.9 34.22 19.71C33.14 20.78 31.88 21.56 30.54 22.06C28.21 21.73 25.84 21.73 23.51 22.06C22.17 21.56 20.91 20.78 19.84 19.71C17.91 17.78 16.86 15.23 16.86 12.51C16.86 9.8 17.91 7.24 19.84 5.32C21.76 3.4 24.31 2.34 27.03 2.34C29.75 2.34 32.3 3.4 34.22 5.32C34.99 6.09 35.63 6.97 36.12 7.94C36.33 8.37 36.86 8.54 37.29 8.33C37.72 8.11 37.89 7.58 37.68 7.15C37.11 6.02 36.36 4.99 35.46 4.09C33.2 1.83 30.21 0.59 27.03 0.59C23.84 0.59 20.85 1.83 18.6 4.09C16.35 6.34 15.11 9.33 15.11 12.51C15.11 15.7 16.35 18.69 18.6 20.94C19.25 21.59 19.96 22.15 20.7 22.62C20.7 22.62 20.7 22.62 20.7 22.62C20.16 22.76 19.62 22.92 19.09 23.09C18.63 23.25 18.39 23.74 18.54 24.2C18.69 24.66 19.19 24.9 19.64 24.75C24.41 23.16 29.65 23.16 34.41 24.75C34.5 24.78 34.6 24.79 34.69 24.79C35.06 24.79 35.4 24.56 35.52 24.2C35.67 23.74 35.42 23.25 34.97 23.09C34.43 22.92 33.89 22.76 33.35 22.62C33.35 22.62 33.35 22.62 33.35 22.62C34.1 22.15 34.81 21.59 35.46 20.94C36.03 20.37 36.54 19.74 36.98 19.07C37.22 19.12 37.46 19.17 37.69 19.22C38.01 19.29 38.32 19.36 38.63 19.44C38.62 19.47 38.61 19.51 38.6 19.55C38.17 21.57 38.2 23.36 38.68 24.86C39.11 26.21 39.89 27.31 41 28.12C42.3 29.07 43.87 29.48 45.3 29.48C46.37 29.48 47.36 29.25 48.08 28.84C48.9 28.37 49.59 27.39 50.13 25.92C50.39 26.22 50.62 26.52 50.85 26.83C51.76 28.07 52.46 29.45 52.92 30.91C53.19 31.78 53.86 32.45 54.71 32.73L57.17 33.51C57.82 33.72 58.25 34.31 58.25 34.99L58.25 39.07C58.25 39.74 57.82 40.34 57.17 40.54L53.21 41.81C52.58 42.01 52.04 42.45 51.7 43.04C50.15 45.73 47.7 47.95 44.43 49.65C44.05 49.85 43.79 50.2 43.71 50.61L42.45 57.33C42.41 57.52 42.25 57.65 42.06 57.65L37.94 57.65C37.75 57.65 37.59 57.52 37.55 57.33L36.85 53.62C36.71 52.89 36.03 52.4 35.29 52.52C33.51 52.78 31.68 52.92 29.85 52.92C28.49 52.92 27.14 52.84 25.85 52.69C25.13 52.61 24.47 53.1 24.33 53.8L23.67 57.33C23.63 57.52 23.47 57.65 23.28 57.65L19.16 57.65C18.97 57.65 18.81 57.52 18.77 57.33L17.55 50.98C17.47 50.58 17.22 50.23 16.85 50.03C11.27 47.06 8.33 42.09 8.33 35.66C8.33 32.41 9.04 29.54 10.44 27.13C11.75 24.87 13.66 23.01 16.12 21.59C16.53 21.35 16.68 20.81 16.43 20.39C16.19 19.98 15.66 19.83 15.24 20.07C10.47 22.83 7.6 27.09 6.81 32.49L6.81 32.49C6.72 32.48 6.64 32.48 6.56 32.47C6.57 31.88 6.47 31.3 6.24 30.72C5.73 29.46 4.69 28.56 3.58 28.41C2.71 28.29 1.89 28.66 1.31 29.42C0.48 30.52 0.61 31.39 0.88 31.93C1.32 32.84 2.45 33.48 4.32 33.88C4.27 33.96 4.21 34.03 4.15 34.11C3.04 35.5 1.74 35.81 0.89 35.84C0.39 35.86 0 36.25 0 36.75L0 36.76C0 37.25 0.38 37.64 0.87 37.67C0.93 37.67 1 37.67 1.07 37.67C2.14 37.67 3.86 37.28 5.52 35.2C5.78 34.87 5.99 34.53 6.15 34.17C6.32 34.19 6.48 34.21 6.63 34.22C6.63 34.22 6.63 34.22 6.63 34.22C6.6 34.69 6.58 35.17 6.58 35.66C6.58 39.3 7.45 42.54 9.16 45.3C10.74 47.84 12.99 49.92 15.87 51.49L17.06 57.65C17.25 58.66 18.13 59.4 19.16 59.4L23.28 59.4C24.31 59.4 25.19 58.66 25.38 57.65L25.99 54.47C27.24 54.6 28.54 54.67 29.85 54.67C31.65 54.67 33.45 54.54 35.2 54.29L35.84 57.65C36.03 58.66 36.91 59.4 37.94 59.4L42.06 59.4C43.09 59.4 43.97 58.66 44.16 57.65L45.4 51.12C48.88 49.27 51.51 46.85 53.21 43.91C53.34 43.7 53.52 43.55 53.74 43.48L57.7 42.21C59.07 41.77 60 40.51 60 39.07L60 34.99C60 33.55 59.07 32.29 57.7 31.85ZM49.36 21.47C49.03 24.35 48.13 26.81 47.22 27.32C46.19 27.9 43.81 28.01 42.03 26.71C40.24 25.4 39.65 23.05 40.31 19.91C40.31 19.91 40.31 19.91 40.31 19.91C40.37 19.6 40.6 19.32 40.91 19.18C45.28 17.18 47.8 16.53 48.74 16.53C48.88 16.53 48.98 16.54 49.05 16.57C49.33 16.87 49.7 18.57 49.36 21.47ZM2.45 31.17C2.36 30.98 2.57 30.65 2.7 30.47C2.92 30.19 3.12 30.13 3.27 30.13C3.3 30.13 3.33 30.14 3.35 30.14C3.76 30.19 4.32 30.64 4.62 31.38C4.69 31.55 4.78 31.84 4.8 32.2C3.59 31.95 2.65 31.59 2.45 31.17Z" fill="#1064E5" fill-opacity="1.000000" fill-rule="nonzero"/>
		<path id="Vector" d="M55.25 31.06C54.93 30.96 54.68 30.71 54.58 30.39C54.06 28.74 53.28 27.2 52.26 25.8C51.79 25.16 51.27 24.55 50.71 23.96C51.07 22.37 51.27 20.57 51.24 19.02C51.2 16.79 50.76 15.49 49.88 15.03C49.41 14.78 47.97 14.03 40.18 17.59C40 17.68 39.82 17.78 39.66 17.9C39.14 17.76 38.6 17.63 38.06 17.51C38 17.5 37.93 17.49 37.87 17.47C38.5 16.09 38.86 14.6 38.93 13.05C38.96 12.57 38.58 12.16 38.1 12.14C37.62 12.11 37.21 12.49 37.19 12.97C37.08 15.51 36.02 17.9 34.22 19.71C33.14 20.78 31.88 21.56 30.54 22.06C28.21 21.73 25.84 21.73 23.51 22.06C22.17 21.56 20.91 20.78 19.84 19.71C17.91 17.78 16.86 15.23 16.86 12.51C16.86 9.8 17.91 7.24 19.84 5.32C21.76 3.4 24.31 2.34 27.03 2.34C29.75 2.34 32.3 3.4 34.22 5.32C34.99 6.09 35.63 6.97 36.12 7.94C36.33 8.37 36.86 8.54 37.29 8.33C37.72 8.11 37.89 7.58 37.68 7.15C37.11 6.02 36.36 4.99 35.46 4.09C33.2 1.83 30.21 0.59 27.03 0.59C23.84 0.59 20.85 1.83 18.6 4.09C16.35 6.34 15.11 9.33 15.11 12.51C15.11 15.7 16.35 18.69 18.6 20.94C19.25 21.59 19.96 22.15 20.7 22.62C20.7 22.62 20.7 22.62 20.7 22.62C20.16 22.76 19.62 22.92 19.09 23.09C18.63 23.25 18.39 23.74 18.54 24.2C18.69 24.66 19.19 24.9 19.64 24.75C24.41 23.16 29.65 23.16 34.41 24.75C34.5 24.78 34.6 24.79 34.69 24.79C35.06 24.79 35.4 24.56 35.52 24.2C35.67 23.74 35.42 23.25 34.97 23.09C34.43 22.92 33.89 22.76 33.35 22.62C33.35 22.62 33.35 22.62 33.35 22.62C34.1 22.15 34.81 21.59 35.46 20.94C36.03 20.37 36.54 19.74 36.98 19.07C37.22 19.12 37.46 19.17 37.69 19.22C38.01 19.29 38.32 19.36 38.63 19.44C38.62 19.47 38.61 19.51 38.6 19.55C38.17 21.57 38.2 23.36 38.68 24.86C39.11 26.21 39.89 27.31 41 28.12C42.3 29.07 43.87 29.48 45.3 29.48C46.37 29.48 47.36 29.25 48.08 28.84C48.9 28.37 49.59 27.39 50.13 25.92C50.39 26.22 50.62 26.52 50.85 26.83C51.76 28.07 52.46 29.45 52.92 30.91C53.19 31.78 53.86 32.45 54.71 32.73L57.17 33.51C57.82 33.72 58.25 34.31 58.25 34.99L58.25 39.07C58.25 39.74 57.82 40.34 57.17 40.54L53.21 41.81C52.58 42.01 52.04 42.45 51.7 43.04C50.15 45.73 47.7 47.95 44.43 49.65C44.05 49.85 43.79 50.2 43.71 50.61L42.45 57.33C42.41 57.52 42.25 57.65 42.06 57.65L37.94 57.65C37.75 57.65 37.59 57.52 37.55 57.33L36.85 53.62C36.71 52.89 36.03 52.4 35.29 52.52C33.51 52.78 31.68 52.92 29.85 52.92C28.49 52.92 27.14 52.84 25.85 52.69C25.13 52.61 24.47 53.1 24.33 53.8L23.67 57.33C23.63 57.52 23.47 57.65 23.28 57.65L19.16 57.65C18.97 57.65 18.81 57.52 18.77 57.33L17.55 50.98C17.47 50.58 17.22 50.23 16.85 50.03C11.27 47.06 8.33 42.09 8.33 35.66C8.33 32.41 9.04 29.54 10.44 27.13C11.75 24.87 13.66 23.01 16.12 21.59C16.53 21.35 16.68 20.81 16.43 20.39C16.19 19.98 15.66 19.83 15.24 20.07C10.47 22.83 7.6 27.09 6.81 32.49L6.81 32.49C6.72 32.48 6.64 32.48 6.56 32.47C6.57 31.88 6.47 31.3 6.24 30.72C5.73 29.46 4.69 28.56 3.58 28.41C2.71 28.29 1.89 28.66 1.31 29.42C0.48 30.52 0.61 31.39 0.88 31.93C1.32 32.84 2.45 33.48 4.32 33.88C4.27 33.96 4.21 34.03 4.15 34.11C3.04 35.5 1.74 35.81 0.89 35.84C0.39 35.86 0 36.25 0 36.75L0 36.76C0 37.25 0.38 37.64 0.87 37.67C0.93 37.67 1 37.67 1.07 37.67C2.14 37.67 3.86 37.28 5.52 35.2C5.78 34.87 5.99 34.53 6.15 34.17C6.32 34.19 6.48 34.21 6.63 34.22C6.63 34.22 6.63 34.22 6.63 34.22C6.6 34.69 6.58 35.17 6.58 35.66C6.58 39.3 7.45 42.54 9.16 45.3C10.74 47.84 12.99 49.92 15.87 51.49L17.06 57.65C17.25 58.66 18.13 59.4 19.16 59.4L23.28 59.4C24.31 59.4 25.19 58.66 25.38 57.65L25.99 54.47C27.24 54.6 28.54 54.67 29.85 54.67C31.65 54.67 33.45 54.54 35.2 54.29L35.84 57.65C36.03 58.66 36.91 59.4 37.94 59.4L42.06 59.4C43.09 59.4 43.97 58.66 44.16 57.65L45.4 51.12C48.88 49.27 51.51 46.85 53.21 43.91C53.34 43.7 53.52 43.55 53.74 43.48L57.7 42.21C59.07 41.77 60 40.51 60 39.07L60 34.99C60 33.55 59.07 32.29 57.7 31.85L55.25 31.06ZM47.22 27.32C46.19 27.9 43.81 28.01 42.03 26.71C40.24 25.4 39.65 23.05 40.31 19.91C40.31 19.91 40.31 19.91 40.31 19.91C40.37 19.6 40.6 19.32 40.91 19.18C45.28 17.18 47.8 16.53 48.74 16.53C48.88 16.53 48.98 16.54 49.05 16.57C49.33 16.87 49.7 18.57 49.36 21.47C49.03 24.35 48.13 26.81 47.22 27.32ZM2.7 30.47C2.92 30.19 3.12 30.13 3.27 30.13C3.3 30.13 3.33 30.14 3.35 30.14C3.76 30.19 4.32 30.64 4.62 31.38C4.69 31.55 4.78 31.84 4.8 32.2C3.59 31.95 2.65 31.59 2.45 31.17C2.36 30.98 2.57 30.65 2.7 30.47Z" stroke="#1064E5" stroke-opacity="1.000000" stroke-width="1.000000"/>
		<path id="Vector" d="M27.88 11.51L27.88 8.39C28.95 8.46 29.35 8.96 29.72 8.96C30.19 8.96 30.4 8.37 30.4 8.08C30.4 7.33 28.92 7 27.88 6.97L27.88 6.56C27.88 6.37 27.65 6.2 27.41 6.2C27.15 6.2 26.97 6.37 26.97 6.56L26.97 7C25.51 7.16 24.04 7.93 24.04 9.86C24.04 11.83 25.58 12.39 26.97 12.88L26.97 16.5C25.4 16.38 24.98 15.3 24.47 15.3C24.09 15.3 23.77 15.81 23.77 16.18C23.77 16.93 25.06 17.96 26.97 17.99L26.97 18.47C26.97 18.65 27.15 18.82 27.41 18.82C27.65 18.82 27.88 18.65 27.88 18.47L27.88 17.95C29.54 17.72 30.68 16.67 30.68 14.78C30.68 12.68 29.22 12 27.88 11.51ZM27.06 11.22C26.24 10.91 25.58 10.59 25.58 9.71C25.58 8.91 26.2 8.53 27.06 8.42L27.06 11.22ZM27.78 16.47L27.78 13.22C28.54 13.54 29.14 13.97 29.14 14.94C29.14 15.82 28.61 16.31 27.78 16.47Z" fill="#1064E5" fill-opacity="1.000000" fill-rule="nonzero"/>
		<path id="Vector" d="M27.88 8.39C28.95 8.46 29.35 8.96 29.72 8.96C30.19 8.96 30.4 8.37 30.4 8.08C30.4 7.33 28.92 7 27.88 6.97L27.88 6.56C27.88 6.37 27.65 6.2 27.41 6.2C27.15 6.2 26.97 6.37 26.97 6.56L26.97 7C25.51 7.16 24.04 7.93 24.04 9.86C24.04 11.83 25.58 12.39 26.97 12.88L26.97 16.5C25.4 16.38 24.98 15.3 24.47 15.3C24.09 15.3 23.77 15.81 23.77 16.18C23.77 16.93 25.06 17.96 26.97 17.99L26.97 18.47C26.97 18.65 27.15 18.82 27.41 18.82C27.65 18.82 27.88 18.65 27.88 18.47L27.88 17.95C29.54 17.72 30.68 16.67 30.68 14.78C30.68 12.68 29.22 12 27.88 11.51L27.88 8.39ZM25.58 9.71C25.58 8.91 26.2 8.53 27.06 8.42L27.06 11.22C26.24 10.91 25.58 10.59 25.58 9.71ZM27.78 13.22C28.54 13.54 29.14 13.97 29.14 14.94C29.14 15.82 28.61 16.31 27.78 16.47L27.78 13.22Z" stroke="#1064E5" stroke-opacity="1.000000" stroke-width="1.000000"/>
	</g>
</svg>
